<svg width="660" height="650" viewBox="0 0 660 650" fill="none" xmlns="http://www.w3.org/2000/svg">
<path d="M197.561 159.75V33.3972C197.561 14.9525 182.609 0 164.164 0H84.6468C74.7222 0 65.3118 4.41397 58.9667 12.0452L32.2273 44.2048C29.3016 47.7235 27.1302 51.806 25.848 56.1989L1.33787 140.169C-0.981452 148.115 -0.26741 156.639 3.34153 164.088L32.0252 223.294C37.6062 234.814 49.2805 242.13 62.081 242.13H114.625C133.07 242.13 148.022 257.082 148.022 275.527V424.702C148.022 443.146 162.974 458.099 181.419 458.099H401.841C420.286 458.099 435.238 473.051 435.238 491.496V616.179C435.238 634.624 450.191 649.576 468.635 649.576H626.159C644.604 649.576 659.556 634.624 659.556 616.179V226.545C659.556 208.1 644.604 193.147 626.159 193.147H230.958C212.514 193.147 197.561 178.195 197.561 159.75Z" fill="#DDCBFF"/>
</svg>
