<svg width="749" height="496" viewBox="0 0 749 496" fill="none" xmlns="http://www.w3.org/2000/svg">
<path d="M0 56.9591V17.8119C0 7.97464 7.97466 0 17.8119 0H717.829C735.044 0 749 13.9557 749 31.1708V268.758C749 284.744 736.041 297.702 720.056 297.702H473.32C462.591 297.702 452.988 304.36 449.224 314.407L448.575 316.139C446.605 321.396 446.797 327.219 449.107 332.336C453.039 341.046 461.401 346.925 470.928 347.677L491.783 349.324C503.943 350.284 513.321 360.432 513.321 372.629V471.509C513.321 485.035 502.356 496 488.83 496H300.337C288.04 496 278.072 486.032 278.072 473.735V367.61C278.072 355.928 287.542 346.458 299.224 346.458H328.679C340.181 346.458 350.27 338.782 353.337 327.695L353.414 327.417C353.978 325.38 354.264 323.276 354.264 321.162C354.264 308.206 343.761 297.702 330.805 297.702H219.706C201.261 297.702 186.308 282.75 186.308 264.305V108.168C186.308 89.7235 171.356 74.771 152.911 74.771H17.8119C7.97464 74.771 0 66.7964 0 56.9591Z" fill="#7070DE"/>
</svg>
