<svg width="782" height="455" viewBox="0 0 782 455" fill="none" xmlns="http://www.w3.org/2000/svg">
<path d="M0 95.1881V17.8119C0 7.97464 7.97469 0 17.8119 0H750.829C768.044 0 782 13.9556 782 31.1707V269.556C782 285.541 769.041 298.5 753.056 298.5H482.878C469.967 298.5 459.5 308.967 459.5 321.878V430.009C459.5 443.535 448.535 454.5 435.009 454.5H149.265C136.968 454.5 127 444.532 127 432.235V310V134C127 122.402 117.598 113 106 113H17.8119C7.97464 113 0 105.025 0 95.1881Z" fill="#7070DE"/>
</svg>
