<svg width="304" height="286" viewBox="0 0 304 286" fill="none" xmlns="http://www.w3.org/2000/svg">
<path d="M57.48 111.319L63.8036 112.679C75.0727 115.102 86.2998 108.409 89.5273 97.3435C92.8502 85.9505 86.5297 73.9769 75.2482 70.2931L41.534 59.2844C26.2431 54.2915 18.0486 37.7009 23.3768 22.5237C28.2827 8.54933 43.0228 0.609376 57.3911 4.20144L209.781 42.2988C226.714 46.5321 236.349 64.3992 230.583 80.8734C225.602 95.103 210.74 103.333 196.037 100.004L182.659 96.975C171.674 94.4879 160.731 101.296 158.109 112.249C155.486 123.201 162.157 134.226 173.076 136.986L274.65 162.654C292.739 167.225 303.575 185.731 298.709 203.743L284.243 257.291C279.552 274.657 261.95 285.187 244.431 281.109L29.1799 231.012C10.0767 226.565 -1.10046 206.692 5.02203 188.059L23.91 130.573C28.5293 116.515 43.0126 108.208 57.48 111.319Z" fill="white" stroke="white" stroke-opacity="0.24" stroke-width="6.67945" stroke-linecap="round"/>
</svg>
