<svg width="795" height="462" viewBox="0 0 795 462" fill="none" xmlns="http://www.w3.org/2000/svg">
<path d="M0 96.6525V18.0859C0 8.09732 8.09732 0 18.0859 0H762.38C779.86 0 794.03 14.1703 794.03 31.6503V273.702C794.03 289.934 780.872 303.092 764.64 303.092H490.306C477.197 303.092 466.569 313.72 466.569 326.83V436.624C466.569 450.358 455.435 461.492 441.701 461.492H151.561C139.075 461.492 128.954 451.37 128.954 438.885V314.769V136.061C128.954 124.285 119.407 114.738 107.631 114.738H18.0859C8.09732 114.738 0 106.641 0 96.6525Z" fill="#7070DE"/>
</svg>
